<svg width="15" height="15" viewBox="0 0 15 15" fill="none" xmlns="http://www.w3.org/2000/svg">
<g clip-path="url(#clip0_325_3989)">
<rect y="0.5" width="15" height="14.4828" rx="4" fill="#E8E8E8"/>
<path d="M1.55176 7.29816C1.55176 7.79728 1.84638 8.11058 2.32894 8.11058H12.666C13.1486 8.11058 13.4483 7.79728 13.4483 7.29816V6.52822C13.4483 6.02909 13.1486 5.7105 12.666 5.7105H2.32894C1.84638 5.7105 1.55176 6.02909 1.55176 6.52822V7.29816ZM2.52705 6.55477H12.4679C12.5797 6.55477 12.6457 6.6238 12.6457 6.74062V7.08045C12.6457 7.19727 12.5797 7.27161 12.4679 7.27161H2.52705C2.4153 7.27161 2.35434 7.19727 2.35434 7.08045V6.74062C2.35434 6.6238 2.4153 6.55477 2.52705 6.55477ZM4.78242 13.4311H10.2177C11.391 13.4311 11.7517 12.7143 11.9041 11.9443L12.7118 7.8982L11.9143 7.75482L11.1574 11.6204C11.0202 12.3001 10.817 12.5815 10.0754 12.5815H4.92465C4.18302 12.5815 3.97983 12.3001 3.84268 11.6204L3.08581 7.75482L2.28831 7.8982L3.09597 11.9443C3.24836 12.7143 3.60902 13.4311 4.78242 13.4311ZM5.3361 12.0027C5.52405 11.9709 5.62564 11.8275 5.60024 11.6576L5.17863 8.88051C5.14815 8.70526 5.00592 8.60973 4.82305 8.63626C4.63511 8.6734 4.52844 8.81145 4.55891 8.98137L4.98053 11.7585C5.011 11.9337 5.14815 12.0346 5.3361 12.0027ZM6.79395 11.9709C6.97683 11.9603 7.09876 11.8328 7.08856 11.6576L6.92601 8.90704C6.91077 8.72652 6.7838 8.6044 6.59586 8.62033C6.41298 8.63626 6.29108 8.76371 6.30123 8.94423L6.46378 11.6894C6.47394 11.87 6.61109 11.9868 6.79395 11.9709ZM8.21117 11.9709C8.39405 11.9868 8.53122 11.87 8.54136 11.6894L8.70391 8.94423C8.71405 8.76371 8.59218 8.63626 8.40929 8.62033C8.22136 8.6044 8.09434 8.72652 8.0791 8.90704L7.91655 11.6576C7.90641 11.8328 8.02833 11.9603 8.21117 11.9709ZM9.66396 12.0027C9.84685 12.0346 9.98906 11.9337 10.0195 11.7585L10.4462 8.98137C10.4716 8.81145 10.365 8.6734 10.177 8.63626C9.99416 8.60973 9.8519 8.70526 9.82141 8.88051L9.39983 11.6576C9.37444 11.8275 9.47603 11.9709 9.66396 12.0027ZM3.19249 5.9282H4.2135L5.99138 2.69448C6.12853 2.4396 6.01677 2.21659 5.82883 2.11039C5.64596 2.0095 5.40213 2.02543 5.26498 2.26437L3.19249 5.9282ZM10.7866 5.9282H11.8076L9.73507 2.26437C9.603 2.03074 9.3592 2.01481 9.17122 2.11039C8.98838 2.21659 8.87156 2.4396 9.00867 2.69448L10.7866 5.9282Z" fill="white" fill-opacity="0.85"/>
</g>
<defs>
<clipPath id="clip0_325_3989">
<rect width="15" height="14.4828" fill="white" transform="translate(0 0.5)"/>
</clipPath>
</defs>
</svg>
