<svg width="40" height="40" viewBox="0 0 40 40" fill="none" xmlns="http://www.w3.org/2000/svg">
<g opacity="0.15">
<path d="M14.7876 35.355H11.6653C11.0729 35.355 10.6103 34.8429 10.6704 34.2536L13.4742 6.76088V2.77142C13.4742 2.21914 13.9219 1.77142 14.4742 1.77142H27.0755C27.6278 1.77142 28.0755 2.21914 28.0755 2.77142V6.76088L31.0875 34.2461C31.1523 34.838 30.6888 35.355 30.0934 35.355H27.054C26.5767 35.355 26.1659 35.0177 26.0731 34.5496L21.9796 13.9106C21.7674 12.8406 20.2392 12.8351 20.0192 13.9035L15.767 34.5567C15.6713 35.0215 15.2621 35.355 14.7876 35.355Z" fill="#FAFAFA"/>
<path d="M13.4742 6.76088V2.77142C13.4742 2.21914 13.9219 1.77142 14.4742 1.77142H27.0755C27.6278 1.77142 28.0755 2.21914 28.0755 2.77142V6.76088M13.4742 6.76088L10.6704 34.2536C10.6103 34.8429 11.0729 35.355 11.6653 35.355H14.7876C15.2621 35.355 15.6713 35.0215 15.767 34.5567L20.0192 13.9035C20.2392 12.8351 21.7674 12.8406 21.9796 13.9106L26.0731 34.5496C26.1659 35.0177 26.5767 35.355 27.054 35.355H30.0934C30.6888 35.355 31.1523 34.838 31.0875 34.2461L28.0755 6.76088M13.4742 6.76088H28.0755" stroke="#FAFAFA"/>
</g>
</svg>
