<svg width="40" height="40" viewBox="0 0 40 40" fill="none" xmlns="http://www.w3.org/2000/svg">
<g opacity="0.15">
<path d="M1.38557 17.9445L8.03468 6.53715C8.21385 6.22976 8.54286 6.04072 8.89865 6.04073L14.2125 6.04088C14.5759 6.04089 14.9075 6.24242 15.1051 6.54748C17.3793 10.0585 21.1806 10.0447 22.9716 6.64962C23.1608 6.29098 23.5204 6.0409 23.9259 6.0409L29.8219 6.0409C30.186 6.0409 30.5213 6.23879 30.6973 6.55754L37.1049 18.1624C37.3803 18.6611 37.184 19.2888 36.6735 19.5417L31.2744 22.2174C30.7928 22.4561 30.2087 22.2713 29.9519 21.7991L29.3396 20.6731C28.8443 19.7623 27.461 20.1141 27.461 21.1508V33.6028C27.461 34.1551 27.0133 34.6028 26.461 34.6028H11.1888C10.6365 34.6028 10.1888 34.1551 10.1888 33.6028V21.238C10.1888 20.1957 8.79376 19.8486 8.30537 20.7694L7.80415 21.7143C7.5358 22.2202 6.89821 22.3979 6.40691 22.1036L1.7357 19.3059C1.26587 19.0246 1.10978 18.4176 1.38557 17.9445Z" fill="#FAFAFA" stroke="#FAFAFA"/>
</g>
</svg>
